<svg width="630" height="718" viewBox="0 0 630 718" fill="none" xmlns="http://www.w3.org/2000/svg">
<path d="M507.588 467.968V382.194L437.065 422.437V508.279L507.588 467.968Z" fill="#15D6E3"/>
<path d="M507.588 247.995L434.559 206.201L315.313 274.417L196.068 206.201L123.038 247.995V323.966L244.293 393.349V537.261L315.313 577.888L386.334 537.261V393.349L507.588 323.966V247.995Z" fill="#3A36FF"/>
<path d="M630.006 254.748V178.525L557.185 136.592L486.298 177.354L559.119 219.288V295.511L630.006 254.748Z" fill="#3A36FF"/>
<path d="M71.5074 295.511V219.288L144.328 177.354L73.4419 136.592L0.620972 178.525V254.748L71.5074 295.511Z" fill="#3A36FF"/>
<path d="M123.038 467.968L193.561 508.279V422.437L123.038 382.194V467.968Z" fill="#3998FF"/>
<path d="M386.502 594.962L315.313 635.677L244.125 594.962V676.392L315.313 717.107L386.502 676.392V594.962Z" fill="#3A36FF"/>
<path d="M383.84 177.307L315.313 137.905L246.786 177.307L315.313 216.708L383.84 177.307Z" fill="#8A88FF"/>
<path d="M558.695 353.18V496.979L437.065 566.307V647.497L630.006 537.574V312.585L558.695 353.18Z" fill="#15D7E3"/>
<path d="M193.561 566.307L71.931 496.979V353.18L0.620972 312.585V537.574L193.561 647.497V566.307Z" fill="#3998FF"/>
<path d="M195.686 148.412L315.313 80.7477L434.94 148.412L506.258 108.072L315.313 0L124.369 108.072L195.686 148.412Z" fill="#8A88FF"/>
</svg>
